<?xml version="1.0" encoding="UTF-8" standalone="no"?>
<svg
   xmlns:dc="http://purl.org/dc/elements/1.1/"
   xmlns:cc="http://creativecommons.org/ns#"
   xmlns:rdf="http://www.w3.org/1999/02/22-rdf-syntax-ns#"
   xmlns:svg="http://www.w3.org/2000/svg"
   xmlns="http://www.w3.org/2000/svg"
   xmlns:sodipodi="http://sodipodi.sourceforge.net/DTD/sodipodi-0.dtd"
   xmlns:inkscape="http://www.inkscape.org/namespaces/inkscape"
   sodipodi:docname="halal, islamic, arabic.svg"
   inkscape:version="1.0 (4035a4fb49, 2020-05-01)"
   id="svg1939"
   version="1.1"
   viewBox="0 0 16.933333 16.933334"
   height="64"
   width="64">
  <defs
     id="defs1933">
    <inkscape:path-effect
       effect="fillet_chamfer"
       id="path-effect1180"
       is_visible="true"
       lpeversion="1"
       satellites_param="F,0,0,1,0,0,0,1 @ F,0,1,1,0,3.1750037,0,1 @ F,0,0,1,0,3.1750037,0,1 @ F,0,0,1,0,0,0,1"
       unit="px"
       method="auto"
       mode="F"
       radius="0"
       chamfer_steps="1"
       flexible="false"
       use_knot_distance="true"
       apply_no_radius="true"
       apply_with_radius="true"
       only_selected="false"
       hide_knots="false" />
    <inkscape:path-effect
       hide_knots="false"
       only_selected="false"
       apply_with_radius="true"
       apply_no_radius="true"
       use_knot_distance="true"
       flexible="false"
       chamfer_steps="1"
       radius="0"
       mode="F"
       method="auto"
       unit="px"
       satellites_param="F,0,0,1,0,0,0,1 @ F,0,1,1,0,1.0583336,0,1 @ F,0,0,1,0,0,0,1 @ F,0,0,1,0,1.0583336,0,1 @ F,0,0,1,0,0,0,1"
       lpeversion="1"
       is_visible="true"
       id="path-effect1344"
       effect="fillet_chamfer" />
    <inkscape:path-effect
       hide_knots="false"
       only_selected="false"
       apply_with_radius="true"
       apply_no_radius="true"
       use_knot_distance="true"
       flexible="false"
       chamfer_steps="1"
       radius="0"
       mode="F"
       method="auto"
       unit="px"
       satellites_param="F,0,1,1,0,1.058337,0,1 @ F,0,0,1,0,0,0,1 @ F,0,0,1,0,0,0,1 @ F,0,0,1,0,1.058337,0,1"
       lpeversion="1"
       is_visible="true"
       id="path-effect1349"
       effect="fillet_chamfer" />
    <inkscape:path-effect
       effect="fillet_chamfer"
       id="path-effect1354"
       is_visible="true"
       lpeversion="1"
       satellites_param="F,0,1,1,0,1.058337,0,1 @ F,0,0,1,0,0,0,1 @ F,0,0,1,0,0,0,1 @ F,0,0,1,0,1.058337,0,1"
       unit="px"
       method="auto"
       mode="F"
       radius="0"
       chamfer_steps="1"
       flexible="false"
       use_knot_distance="true"
       apply_no_radius="true"
       apply_with_radius="true"
       only_selected="false"
       hide_knots="false" />
    <inkscape:path-effect
       effect="fillet_chamfer"
       id="path-effect1446"
       is_visible="true"
       lpeversion="1"
       satellites_param="F,0,0,1,0,0,0,1 @ F,0,0,1,0,0.58705535,0,1 @ F,0,0,1,0,0,0,1 @ F,0,0,1,0,0,0,1 @ F,0,0,1,0,0,0,1 @ F,0,0,1,0,1.5874998,0,1 @ F,0,0,1,0,1.5874998,0,1 @ F,0,0,1,0,0,0,1"
       unit="px"
       method="auto"
       mode="F"
       radius="0"
       chamfer_steps="1"
       flexible="false"
       use_knot_distance="true"
       apply_no_radius="true"
       apply_with_radius="true"
       only_selected="false"
       hide_knots="false" />
    <inkscape:path-effect
       effect="fillet_chamfer"
       id="path-effect1444"
       is_visible="true"
       lpeversion="1"
       satellites_param="F,0,0,1,0,0,0,1 @ F,0,0,1,0,1.5875,0,1 @ F,0,1,1,0,1.5875,0,1 @ F,0,0,1,0,0,0,1"
       unit="px"
       method="auto"
       mode="F"
       radius="0"
       chamfer_steps="1"
       flexible="false"
       use_knot_distance="true"
       apply_no_radius="true"
       apply_with_radius="true"
       only_selected="false"
       hide_knots="false" />
  </defs>
  <sodipodi:namedview
     inkscape:window-maximized="1"
     inkscape:window-y="-8"
     inkscape:window-x="-8"
     inkscape:window-height="706"
     inkscape:window-width="1366"
     units="px"
     showgrid="false"
     inkscape:document-rotation="0"
     inkscape:current-layer="layer1"
     inkscape:document-units="px"
     inkscape:cy="24.513749"
     inkscape:cx="70.874455"
     inkscape:zoom="5.3947141"
     inkscape:pageshadow="2"
     inkscape:pageopacity="0.0"
     borderopacity="1.0"
     bordercolor="#666666"
     pagecolor="#ffffff"
     id="base" />
  <metadata
     id="metadata1936">
    <rdf:RDF>
      <cc:Work
         rdf:about="">
        <dc:format>image/svg+xml</dc:format>
        <dc:type
           rdf:resource="http://purl.org/dc/dcmitype/StillImage" />
        <dc:title />
      </cc:Work>
    </rdf:RDF>
  </metadata>
  <g
     id="layer1"
     inkscape:groupmode="layer"
     inkscape:label="Layer 1">
    <g
       transform="translate(-27.368192,-281.12754)"
       style="display:inline"
       id="g1452">
      <g
         transform="translate(1.1410753e-5,0.7937452)"
         id="g1440">
        <g
           id="g1460"
           transform="translate(30.427082,-1.0325159e-5)">
          <path
             d="m 5.4080238,280.3338 c -4.67273732,0 -8.4669288,3.79379 -8.4669251,8.46667 2.1e-6,4.67288 3.79419178,8.46667 8.4669251,8.46667 4.6727332,0 8.4664062,-3.79379 8.4664082,-8.46667 3e-6,-4.67288 -3.793671,-8.46667 -8.4664082,-8.46667 z m 0,0.52917 c 4.3867632,0 7.9372602,3.55061 7.9372582,7.9375 -3e-6,4.3869 -3.550499,7.9375 -7.9372582,7.9375 -4.3867589,0 -7.937256,-3.5506 -7.9372579,-7.9375 -3.4e-6,-4.38689 3.5504953,-7.9375 7.9372579,-7.9375 z m -2.3811774,4.49895 a 0.26457542,0.2645835 0 0 0 -0.2656087,0.26355 v 4.76147 c 0,0.73376 -0.5881047,1.32446 -1.3218428,1.32446 -0.73373812,0 -1.32235942,-0.5907 -1.32235962,-1.32446 a 0.26457542,0.2645835 0 0 0 -0.2656087,-0.26355 0.26457542,0.2645835 0 0 0 -0.2635418,0.26355 c 0,1.01975 0.8317976,1.85363 1.85151012,1.85363 1.0197124,0 1.8515101,-0.83388 1.8515101,-1.85363 v -4.76147 a 0.26457542,0.2645835 0 0 0 -0.2640586,-0.26355 z m 4.2223526,0.003 a 0.26460188,0.26460996 0 0 0 -0.0093,5.3e-4 0.26460188,0.26460996 0 0 0 -0.244422,0.25993 v 4.23437 0.5271 c 0,0.73376 -0.5901716,1.32447 -1.3239095,1.32447 -0.7337381,0 -1.3223596,-0.59071 -1.3223596,-1.32447 a 0.26457542,0.2645835 0 0 0 -0.2635418,-0.26355 0.26457542,0.2645835 0 0 0 -0.2656087,0.26355 c 0,1.01975 0.8317977,1.85363 1.8515101,1.85363 1.0197122,0 1.8535775,-0.83388 1.8535775,-1.85363 v -0.26356 h 3.438962 a 0.26460188,0.26460996 0 0 0 0.219102,-0.41186 l -0.73275,-1.09813 c -0.252334,-0.37851 -0.677812,-0.6072 -1.132713,-0.6072 H 8.317838 a 0.26457542,0.2645835 0 0 0 -0.263542,0.26562 0.26457542,0.2645835 0 0 0 0.263542,0.26355 h 0.999908 c 0.278597,0 0.53894,0.13923 0.693477,0.37104 l 0.456806,0.68781 H 7.525146 v -3.96875 a 0.26460188,0.26460996 0 0 0 -0.275944,-0.26045 z m -2.6519537,2.50899 a 0.26457542,0.2645835 0 0 0 -0.015501,0.002 0.26457542,0.2645835 0 0 0 -0.1405557,0.0625 0.26457542,0.2645835 0 0 0 -0.027388,0.3731 l 1.5859012,1.85157 a 0.26457542,0.2645835 0 0 0 0.3730924,0.0289 0.26457542,0.2645835 0 0 0 0.028938,-0.3731 l -1.5874516,-1.85157 a 0.26457542,0.2645835 0 0 0 -0.2170342,-0.093 z"
             style="color:#000000;font-style:normal;font-variant:normal;font-weight:normal;font-stretch:normal;font-size:medium;line-height:normal;font-family:sans-serif;font-variant-ligatures:normal;font-variant-position:normal;font-variant-caps:normal;font-variant-numeric:normal;font-variant-alternates:normal;font-variant-east-asian:normal;font-feature-settings:normal;font-variation-settings:normal;text-indent:0;text-align:start;text-decoration:none;text-decoration-line:none;text-decoration-style:solid;text-decoration-color:#000000;letter-spacing:normal;word-spacing:normal;text-transform:none;writing-mode:lr-tb;direction:ltr;text-orientation:mixed;dominant-baseline:auto;baseline-shift:baseline;text-anchor:start;white-space:normal;shape-padding:0;shape-margin:0;inline-size:0;clip-rule:nonzero;display:inline;overflow:visible;visibility:visible;opacity:1;isolation:auto;mix-blend-mode:normal;color-interpolation:sRGB;color-interpolation-filters:linearRGB;solid-color:#000000;solid-opacity:1;vector-effect:none;fill:#000000;fill-opacity:1;fill-rule:evenodd;stroke:none;stroke-width:0.529167;stroke-linecap:round;stroke-linejoin:round;stroke-miterlimit:4;stroke-dasharray:none;stroke-dashoffset:0;stroke-opacity:1;color-rendering:auto;image-rendering:auto;shape-rendering:auto;text-rendering:auto;enable-background:accumulate;stop-color:#000000;stop-opacity:1"
             id="path38" />
        </g>
      </g>
    </g>
  </g>
</svg>
