<?xml version="1.0" encoding="UTF-8" standalone="no"?> <svg xmlns="http://www.w3.org/2000/svg" viewBox="0 0 64 64"><g id="Layer_3" data-name="Layer 3"><path d="M47.09,19.14A5.86,5.86,0,0,0,57,22.29,5.86,5.86,0,0,0,57,14a5.86,5.86,0,0,0-9.91,3.14H40a1,1,0,0,0-.87.5l-3.71,6.43H28a1,1,0,0,0-.87.5L23.42,31H16.58l-3.43-5.93,3.72-6.43a1,1,0,0,0,0-1l-.82-1.42.09-.08A5.84,5.84,0,1,0,12,17.86a6,6,0,0,0,2.38-.52l.46.8-3.71,6.43a1,1,0,0,0,0,1l4,6.93A1,1,0,0,0,16,33h7.42l3.43,5.93-3.43,5.93H15.26a5.88,5.88,0,1,0,0,2h8.16l3.71,6.42a1,1,0,0,0,.87.5h8a1,1,0,0,0,.87-.5l3.71-6.42H48a1,1,0,0,0,.87-.5l4-6.93a1,1,0,0,0,0-1l-4-6.93A1,1,0,0,0,48,31H40.58l-3.43-5.93,3.43-5.93Zm3-3.73a3.86,3.86,0,0,1,5.46,5.46,4,4,0,0,1-5.46,0,3.86,3.86,0,0,1,0-5.46ZM9.27,14.73a3.86,3.86,0,1,1,5.46,0A3.87,3.87,0,0,1,9.27,14.73Zm3,33.86a3.86,3.86,0,0,1-5.46-5.46,3.86,3.86,0,0,1,5.46,0A3.87,3.87,0,0,1,12.23,48.59Zm23.19,3.19H28.58l-3.43-5.92,3.43-5.93h6.84l3.43,5.93ZM47.42,33l3.43,5.93-3.43,5.93H40.58l-3.43-5.93L40.58,33Zm-12,4.93H28.58L25.15,32l3.43-5.93h6.84L38.85,32Z"/></g></svg>