<?xml version="1.0" encoding="UTF-8" standalone="no"?><!DOCTYPE svg PUBLIC "-//W3C//DTD SVG 1.1//EN" "http://www.w3.org/Graphics/SVG/1.1/DTD/svg11.dtd"><svg width="100%" height="100%" viewBox="0 0 24 24" version="1.1" xmlns="http://www.w3.org/2000/svg" xmlns:xlink="http://www.w3.org/1999/xlink" xml:space="preserve" xmlns:serif="http://www.serif.com/" style="fill-rule:evenodd;clip-rule:evenodd;stroke-linejoin:round;stroke-miterlimit:2;"><g id="Icon"><path d="M7.154,8.645l4.667,5.111c0.138,0.151 0.332,0.239 0.537,0.244c0.205,0.004 0.402,-0.075 0.547,-0.22l9.25,-9.25c0.293,-0.292 0.293,-0.768 0,-1.06c-0.292,-0.293 -0.768,-0.293 -1.06,-0l-8.695,8.695c-0,-0 -4.138,-4.532 -4.138,-4.532c-0.279,-0.305 -0.754,-0.327 -1.059,-0.048c-0.306,0.279 -0.328,0.754 -0.049,1.06Z"/><path d="M12.375,2l-7,0c-2.071,-0 -3.75,1.679 -3.75,3.75l-0,12.5c0,2.071 1.679,3.75 3.75,3.75l12.5,0c2.071,-0 3.75,-1.679 3.75,-3.75c-0,-2.946 -0,-7 -0,-7c-0,-0.414 -0.336,-0.75 -0.75,-0.75c-0.414,0 -0.75,0.336 -0.75,0.75c-0,0 -0,4.054 0,7c0,1.243 -1.007,2.25 -2.25,2.25c-0,0 -12.5,0 -12.5,0c-1.243,-0 -2.25,-1.007 -2.25,-2.25c-0,-0 0,-12.5 0,-12.5c0,-1.243 1.007,-2.25 2.25,-2.25l7,0c0.414,0 0.75,-0.336 0.75,-0.75c0,-0.414 -0.336,-0.75 -0.75,-0.75Z"/></g></svg>